<svg width="196" height="229" viewBox="0 0 196 229" fill="none" xmlns="http://www.w3.org/2000/svg">
<path d="M34.5051 153.08C36.0891 153.08 37.3051 153.584 38.1531 154.592C39.0171 155.584 39.4491 157.088 39.4491 159.104C39.4491 160.928 39.2011 162.696 38.7051 164.408C38.2091 166.104 37.3931 167.52 36.2571 168.656C35.1371 169.776 33.6891 170.336 31.9131 170.336C30.1531 170.336 28.7691 169.704 27.7611 168.44L29.4171 166.808C29.8171 167.208 30.2011 167.504 30.5691 167.696C30.9531 167.872 31.4171 167.96 31.9611 167.96C33.0971 167.96 34.0011 167.464 34.6731 166.472C35.3451 165.48 35.8251 164.192 36.1131 162.608H30.7371L31.0491 160.352H36.3771C36.4091 159.68 36.4251 159.2 36.4251 158.912C36.4251 157.68 36.2251 156.792 35.8251 156.248C35.4411 155.688 34.8731 155.408 34.1211 155.408C33.5451 155.408 33.0331 155.504 32.5851 155.696C32.1531 155.872 31.6491 156.168 31.0731 156.584L29.8251 154.856C30.5451 154.248 31.2731 153.8 32.0091 153.512C32.7451 153.224 33.5771 153.08 34.5051 153.08ZM50.8888 170H47.8648L49.8568 155.84H46.3768L44.9368 162.008C44.4088 164.232 43.9288 165.88 43.4968 166.952C43.0648 168.024 42.5448 168.808 41.9368 169.304C41.3448 169.784 40.5048 170.144 39.4168 170.384L39.0088 168.008C39.5368 167.8 39.9288 167.56 40.1848 167.288C40.4568 167 40.7208 166.488 40.9768 165.752C41.2328 165 41.5768 163.752 42.0088 162.008L44.0728 153.416H53.2168L50.8888 170ZM65.265 153.416L64.593 155.696H59.265L58.593 160.448H63.273L62.961 162.704H58.281L57.585 167.696H63.321L62.985 170H54.225L56.577 153.416H65.265ZM78.8899 155.264C78.3459 155.424 77.9059 155.648 77.5699 155.936C77.2339 156.208 76.7939 156.768 76.2499 157.616L73.9459 161.288L77.1139 170H74.0179L71.3779 162.464H69.6019L68.5459 170H65.5219L67.8739 153.416H70.8739L69.9379 160.184H71.6179L74.0899 156.176C74.5539 155.424 74.9699 154.856 75.3379 154.472C75.7059 154.088 76.0979 153.8 76.5139 153.608C76.9459 153.416 77.5299 153.24 78.2659 153.08L78.8899 155.264ZM90.8098 153.416L90.1618 155.864H86.3698L84.3778 170H81.3778L83.3458 155.864H79.3858L79.7458 153.416H90.8098ZM96.897 153.416C98.641 153.416 99.985 153.8 100.929 154.568C101.873 155.32 102.345 156.424 102.345 157.88C102.345 159 102.105 160.04 101.625 161C101.161 161.944 100.425 162.712 99.417 163.304C98.409 163.88 97.129 164.168 95.577 164.168H94.065L93.249 170H90.225L92.577 153.416H96.897ZM95.625 161.888C96.953 161.888 97.881 161.512 98.409 160.76C98.953 159.992 99.225 159.048 99.225 157.928C99.225 157.128 99.009 156.552 98.577 156.2C98.145 155.848 97.489 155.672 96.609 155.672H95.265L94.401 161.888H95.625ZM111.019 153.08C112.763 153.08 114.107 153.632 115.051 154.736C116.011 155.84 116.491 157.416 116.491 159.464C116.491 161.224 116.219 162.936 115.675 164.6C115.147 166.264 114.291 167.64 113.107 168.728C111.923 169.816 110.419 170.36 108.595 170.36C106.851 170.36 105.499 169.808 104.539 168.704C103.579 167.6 103.099 166.024 103.099 163.976C103.099 162.248 103.371 160.552 103.915 158.888C104.459 157.224 105.323 155.84 106.507 154.736C107.691 153.632 109.195 153.08 111.019 153.08ZM110.827 155.408C109.707 155.408 108.803 155.888 108.115 156.848C107.427 157.808 106.931 158.968 106.627 160.328C106.339 161.688 106.195 163 106.195 164.264C106.195 165.56 106.411 166.512 106.843 167.12C107.291 167.712 107.931 168.008 108.763 168.008C109.899 168.008 110.811 167.528 111.499 166.568C112.187 165.608 112.675 164.448 112.963 163.088C113.251 161.728 113.395 160.408 113.395 159.128C113.395 157.848 113.179 156.912 112.747 156.32C112.331 155.712 111.691 155.408 110.827 155.408ZM120.812 170H117.788L120.14 153.416H123.14L122.204 160.112H127.196L128.156 153.416H131.156L128.828 170H125.828L126.86 162.56H121.868L120.812 170ZM143.195 170H140.243L141.227 162.848C141.403 161.584 141.595 160.448 141.803 159.44C142.027 158.432 142.299 157.36 142.619 156.224L135.923 170H132.179L134.507 153.416H137.411L136.427 160.544C136.235 161.92 136.035 163.08 135.827 164.024C135.635 164.968 135.379 166.008 135.059 167.144L141.803 153.416H145.523L143.195 170ZM159.89 155.264C159.346 155.424 158.906 155.648 158.57 155.936C158.234 156.208 157.794 156.768 157.25 157.616L154.946 161.288L158.114 170H155.018L152.378 162.464H150.602L149.546 170H146.522L148.874 153.416H151.874L150.938 160.184H152.618L155.09 156.176C155.554 155.424 155.97 154.856 156.338 154.472C156.706 154.088 157.098 153.8 157.514 153.608C157.946 153.416 158.53 153.24 159.266 153.08L159.89 155.264ZM167.778 170L167.418 166.112H162.666L161.25 170H158.13L164.994 153.416H168.69L170.898 170H167.778ZM163.506 163.808H167.226L166.482 155.648L163.506 163.808ZM62.6748 199H59.6508L62.0028 182.416H65.0028L64.0668 189.112H69.0588L70.0188 182.416H73.0188L70.6908 199H67.6908L68.7228 191.56H63.7308L62.6748 199ZM82.226 182.08C83.97 182.08 85.314 182.632 86.258 183.736C87.218 184.84 87.698 186.416 87.698 188.464C87.698 190.224 87.426 191.936 86.882 193.6C86.354 195.264 85.498 196.64 84.314 197.728C83.13 198.816 81.626 199.36 79.802 199.36C78.058 199.36 76.706 198.808 75.746 197.704C74.786 196.6 74.306 195.024 74.306 192.976C74.306 191.248 74.578 189.552 75.122 187.888C75.666 186.224 76.53 184.84 77.714 183.736C78.898 182.632 80.402 182.08 82.226 182.08ZM82.034 184.408C80.914 184.408 80.01 184.888 79.322 185.848C78.634 186.808 78.138 187.968 77.834 189.328C77.546 190.688 77.402 192 77.402 193.264C77.402 194.56 77.618 195.512 78.05 196.12C78.498 196.712 79.138 197.008 79.97 197.008C81.106 197.008 82.018 196.528 82.706 195.568C83.394 194.608 83.882 193.448 84.17 192.088C84.458 190.728 84.602 189.408 84.602 188.128C84.602 186.848 84.386 185.912 83.954 185.32C83.538 184.712 82.898 184.408 82.034 184.408ZM97.4906 190.24C98.4346 190.448 99.1786 190.808 99.7226 191.32C100.283 191.832 100.563 192.584 100.563 193.576C100.563 195.208 99.9946 196.52 98.8586 197.512C97.7226 198.504 95.9626 199 93.5786 199H88.9946L91.3466 182.416H95.8106C97.4426 182.416 98.7306 182.736 99.6746 183.376C100.619 184 101.091 184.912 101.091 186.112C101.091 187.216 100.755 188.12 100.083 188.824C99.4266 189.512 98.5626 189.984 97.4906 190.24ZM94.0346 184.672L93.3866 189.256H95.0186C95.9786 189.256 96.7146 189.008 97.2266 188.512C97.7546 188 98.0186 187.28 98.0186 186.352C98.0186 185.232 97.2906 184.672 95.8346 184.672H94.0346ZM93.8666 196.696C95.1946 196.696 96.1226 196.408 96.6506 195.832C97.1946 195.24 97.4666 194.448 97.4666 193.456C97.4666 192.736 97.2506 192.216 96.8186 191.896C96.4026 191.576 95.7866 191.416 94.9706 191.416H93.0746L92.3306 196.696H93.8666ZM110.421 182.08C112.165 182.08 113.509 182.632 114.453 183.736C115.413 184.84 115.893 186.416 115.893 188.464C115.893 190.224 115.621 191.936 115.077 193.6C114.549 195.264 113.693 196.64 112.509 197.728C111.325 198.816 109.821 199.36 107.997 199.36C106.253 199.36 104.901 198.808 103.941 197.704C102.981 196.6 102.501 195.024 102.501 192.976C102.501 191.248 102.773 189.552 103.317 187.888C103.861 186.224 104.725 184.84 105.909 183.736C107.093 182.632 108.597 182.08 110.421 182.08ZM110.229 184.408C109.109 184.408 108.205 184.888 107.517 185.848C106.829 186.808 106.333 187.968 106.029 189.328C105.741 190.688 105.597 192 105.597 193.264C105.597 194.56 105.813 195.512 106.245 196.12C106.693 196.712 107.333 197.008 108.165 197.008C109.301 197.008 110.213 196.528 110.901 195.568C111.589 194.608 112.077 193.448 112.365 192.088C112.653 190.728 112.797 189.408 112.797 188.128C112.797 186.848 112.581 185.912 112.149 185.32C111.733 184.712 111.093 184.408 110.229 184.408ZM128.686 182.416L127.99 184.912H122.206L120.238 199H117.214L119.542 182.416H128.686ZM134.984 182.08C136.728 182.08 138.072 182.632 139.016 183.736C139.976 184.84 140.456 186.416 140.456 188.464C140.456 190.224 140.184 191.936 139.64 193.6C139.112 195.264 138.256 196.64 137.072 197.728C135.888 198.816 134.384 199.36 132.56 199.36C130.816 199.36 129.464 198.808 128.504 197.704C127.544 196.6 127.064 195.024 127.064 192.976C127.064 191.248 127.336 189.552 127.88 187.888C128.424 186.224 129.288 184.84 130.472 183.736C131.656 182.632 133.16 182.08 134.984 182.08ZM134.792 184.408C133.672 184.408 132.768 184.888 132.08 185.848C131.392 186.808 130.896 187.968 130.592 189.328C130.304 190.688 130.16 192 130.16 193.264C130.16 194.56 130.376 195.512 130.808 196.12C131.256 196.712 131.896 197.008 132.728 197.008C133.864 197.008 134.776 196.528 135.464 195.568C136.152 194.608 136.64 193.448 136.928 192.088C137.216 190.728 137.36 189.408 137.36 188.128C137.36 186.848 137.144 185.912 136.712 185.32C136.296 184.712 135.656 184.408 134.792 184.408ZM54.6193 211.416L52.2913 228H49.2673L51.2353 213.864H46.3153L44.3233 228H41.3232L43.6513 211.416H54.6193ZM63.8276 211.08C65.5716 211.08 66.9156 211.632 67.8596 212.736C68.8196 213.84 69.2996 215.416 69.2996 217.464C69.2996 219.224 69.0276 220.936 68.4836 222.6C67.9556 224.264 67.0996 225.64 65.9156 226.728C64.7316 227.816 63.2276 228.36 61.4036 228.36C59.6596 228.36 58.3076 227.808 57.3476 226.704C56.3876 225.6 55.9076 224.024 55.9076 221.976C55.9076 220.248 56.1796 218.552 56.7236 216.888C57.2676 215.224 58.1316 213.84 59.3156 212.736C60.4996 211.632 62.0036 211.08 63.8276 211.08ZM63.6356 213.408C62.5156 213.408 61.6116 213.888 60.9236 214.848C60.2356 215.808 59.7396 216.968 59.4356 218.328C59.1476 219.688 59.0036 221 59.0036 222.264C59.0036 223.56 59.2196 224.512 59.6516 225.12C60.0996 225.712 60.7396 226.008 61.5716 226.008C62.7076 226.008 63.6196 225.528 64.3076 224.568C64.9956 223.608 65.4836 222.448 65.7716 221.088C66.0596 219.728 66.2036 218.408 66.2036 217.128C66.2036 215.848 65.9876 214.912 65.5556 214.32C65.1396 213.712 64.4996 213.408 63.6356 213.408ZM83.9641 213.264C83.4201 213.424 82.9801 213.648 82.6441 213.936C82.3081 214.208 81.8681 214.768 81.3241 215.616L79.0201 219.288L82.1881 228H79.0921L76.4521 220.464H74.6761L73.6201 228H70.5961L72.9481 211.416H75.9481L75.0121 218.184H76.6921L79.1641 214.176C79.6281 213.424 80.0441 212.856 80.4121 212.472C80.7801 212.088 81.1721 211.8 81.5881 211.608C82.0201 211.416 82.6041 211.24 83.3401 211.08L83.9641 213.264ZM91.7651 211.08C93.5091 211.08 94.8531 211.632 95.7971 212.736C96.7571 213.84 97.2371 215.416 97.2371 217.464C97.2371 219.224 96.9651 220.936 96.4211 222.6C95.8931 224.264 95.0371 225.64 93.8531 226.728C92.6691 227.816 91.1651 228.36 89.3411 228.36C87.5971 228.36 86.2451 227.808 85.2851 226.704C84.3251 225.6 83.8451 224.024 83.8451 221.976C83.8451 220.248 84.1171 218.552 84.6611 216.888C85.2051 215.224 86.0691 213.84 87.2531 212.736C88.4371 211.632 89.9411 211.08 91.7651 211.08ZM91.5731 213.408C90.4531 213.408 89.5491 213.888 88.8611 214.848C88.1731 215.808 87.6771 216.968 87.3731 218.328C87.0851 219.688 86.9411 221 86.9411 222.264C86.9411 223.56 87.1571 224.512 87.5891 225.12C88.0371 225.712 88.6771 226.008 89.5091 226.008C90.6451 226.008 91.5571 225.528 92.2451 224.568C92.9331 223.608 93.4211 222.448 93.7091 221.088C93.9971 219.728 94.1411 218.408 94.1411 217.128C94.1411 215.848 93.9251 214.912 93.4931 214.32C93.0771 213.712 92.4371 213.408 91.5731 213.408ZM108.721 228H105.697L107.689 213.84H104.209L102.769 220.008C102.241 222.232 101.761 223.88 101.329 224.952C100.897 226.024 100.377 226.808 99.7689 227.304C99.1769 227.784 98.3369 228.144 97.2489 228.384L96.8409 226.008C97.3689 225.8 97.7609 225.56 98.0169 225.288C98.2889 225 98.5529 224.488 98.8089 223.752C99.0649 223 99.4089 221.752 99.8409 220.008L101.905 211.416H111.049L108.721 228ZM123.097 211.416L122.425 213.696H117.097L116.425 218.448H121.105L120.793 220.704H116.113L115.417 225.696H121.153L120.817 228H112.057L114.409 211.416H123.097ZM126.378 228H123.354L125.706 211.416H128.706L127.77 218.112H132.762L133.722 211.416H136.722L134.394 228H131.394L132.426 220.56H127.434L126.378 228ZM148.761 228H145.809L146.793 220.848C146.969 219.584 147.161 218.448 147.369 217.44C147.593 216.432 147.865 215.36 148.185 214.224L141.489 228H137.745L140.073 211.416H142.977L141.993 218.544C141.801 219.92 141.601 221.08 141.393 222.024C141.201 222.968 140.945 224.008 140.625 225.144L147.369 211.416H151.089L148.761 228ZM164.232 211.416L161.904 228H158.904L159.768 221.736L157.464 221.712L154.032 228H150.84L154.896 221.016C154.224 220.664 153.712 220.176 153.36 219.552C153.024 218.928 152.856 218.192 152.856 217.344C152.856 216.352 153.064 215.408 153.48 214.512C153.912 213.616 154.632 212.88 155.64 212.304C156.648 211.712 157.96 211.416 159.576 211.416H164.232ZM160.896 213.648H159.384C158.184 213.648 157.312 214.008 156.768 214.728C156.24 215.432 155.976 216.28 155.976 217.272C155.976 218.008 156.16 218.56 156.528 218.928C156.896 219.296 157.416 219.48 158.088 219.48H160.08L160.896 213.648Z" fill="white"/>
<rect width="196" height="126"/>
</svg>
