<svg width="57" height="73" viewBox="0 0 57 73" fill="none" xmlns="http://www.w3.org/2000/svg">
<path d="M28.6097 19.689L28.6097 19.689C28.6104 19.6906 28.6111 19.6925 28.612 19.6947C28.6149 19.702 28.6188 19.7117 28.6223 19.721L28.6222 19.7207L28.4818 19.7737L28.6224 19.7214L28.6097 19.689ZM28.6097 19.689L28.609 19.6872M28.6097 19.689L28.609 19.6872M28.609 19.6872C28.3697 19.1057 27.8086 18.73 27.18 18.73L27.1785 18.73L27.1784 18.73M28.609 19.6872L27.1784 18.73M27.1784 18.73C26.5492 18.7306 25.988 19.1078 25.7498 19.6901L25.7495 19.6907M27.1784 18.73L25.7495 19.6907M25.7495 19.6907C25.7492 19.6916 25.7488 19.6925 25.7484 19.6934C25.7458 19.7 25.742 19.7093 25.7385 19.7189L20.3417 33.8894C20.1019 34.5186 20.4179 35.223 21.0471 35.4628C21.6757 35.7027 22.3809 35.3867 22.6207 34.7573L22.6207 34.7573M25.7495 19.6907L22.6207 34.7573M22.6207 34.7573L23.6657 32.0133M22.6207 34.7573L23.6657 32.0133M23.6657 32.0133H30.6548H23.6657ZM33.9705 33.8927L33.8302 33.9457L33.9705 33.8927C33.9705 33.8927 33.9705 33.8927 33.9705 33.8927ZM31.689 34.7538L31.689 34.7539L31.8294 34.7009L31.689 34.7538ZM29.7343 29.5745H24.5944L27.1762 22.796L29.7343 29.5745Z" fill="#F3F2F2" stroke="#F3F2F2" stroke-width="0.3"/>
<path d="M35.0231 22.2947V21.7989H35.5189C36.1924 21.7989 36.7382 21.2531 36.7382 20.5796C36.7382 19.9061 36.1924 19.3603 35.5189 19.3603H35.0231V18.8644C35.0231 18.1908 34.4774 17.645 33.8038 17.645C33.1303 17.645 32.5845 18.1908 32.5845 18.8644V19.3603H32.0887C31.4152 19.3603 30.8694 19.9061 30.8694 20.5796C30.8694 21.2531 31.4152 21.7989 32.0887 21.7989H32.5845V22.2947C32.5845 22.9682 33.1303 23.514 33.8038 23.514C34.4774 23.514 35.0231 22.9682 35.0231 22.2947Z" fill="#F3F2F2" stroke="#F3F2F2" stroke-width="0.3"/>
<path d="M29.7193 56.3383V54.1901C29.7193 53.5165 29.1735 52.9707 28.4999 52.9707C27.8264 52.9707 27.2806 53.5165 27.2806 54.1901V56.3383C27.2806 57.0118 27.8264 57.5576 28.4999 57.5576C29.1735 57.5576 29.7193 57.0117 29.7193 56.3383Z" fill="#F3F2F2" stroke="#F3F2F2" stroke-width="0.3"/>
<path d="M44.2813 27.6315L44.2796 27.6315L44.2672 27.6315C43.6003 27.6315 43.0558 27.0947 43.0482 26.426C42.9581 18.4449 36.4663 12.0433 28.4999 12.0433C20.477 12.0433 13.9497 18.5706 13.9497 26.5935C13.9497 34.6165 20.477 41.1439 28.4999 41.1439C35.0844 41.1439 40.8661 36.7055 42.5598 30.351L42.5598 30.351C42.7334 29.7005 43.4009 29.3131 44.0521 29.4869L44.2813 27.6315ZM44.2813 27.6315C44.9547 27.6238 45.4943 27.0717 45.4867 26.3983C45.3818 17.0952 37.8199 9.60464 28.4999 9.60464C19.1321 9.60464 11.511 17.2257 11.511 26.5937C11.511 35.9617 19.1321 43.5827 28.4999 43.5827C36.1877 43.5827 42.9382 38.4002 44.9162 30.9792L44.9162 30.9791M44.2813 27.6315L44.9162 30.9791M44.9162 30.9791C45.0895 30.3284 44.7027 29.6604 44.0521 29.4869L44.9162 30.9791Z" fill="#F3F2F2" stroke="#F3F2F2" stroke-width="0.3"/>
<path d="M51.0385 10.2169L50.9172 10.3052L51.0385 10.2169C50.0943 8.91972 48.6379 8.26153 47.1978 7.7482C46.8758 7.63341 46.5588 7.52726 46.2476 7.42305C45.8521 7.29058 45.4658 7.16123 45.0903 7.0212C44.4264 6.77368 43.8293 6.50401 43.3494 6.15471L43.2611 6.27599L43.3494 6.1547C42.8757 5.81004 42.44 5.32758 42.0029 4.77326C41.7602 4.46545 41.5245 4.14565 41.2829 3.81777C41.0837 3.5474 40.8804 3.27154 40.6658 2.99238C39.7328 1.77878 38.6503 0.592484 37.1103 0.0926265C35.616 -0.39291 34.0693 -0.0679413 32.6046 0.362C32.2937 0.453248 31.9893 0.548344 31.6893 0.642066C31.2731 0.772082 30.8654 0.899454 30.4606 1.01025C29.7694 1.19941 29.1135 1.33199 28.5 1.33199C27.8857 1.33199 27.2295 1.19938 26.5383 1.01019C26.1332 0.899278 25.7251 0.77175 25.3087 0.641588C25.0091 0.547962 24.7052 0.452974 24.3949 0.361828C22.9307 -0.0681962 21.3848 -0.3932 19.8898 0.0924965C18.3492 0.592787 17.267 1.77892 16.3343 2.99237C16.1198 3.27141 15.9166 3.54716 15.7175 3.81743C15.4759 4.14535 15.2403 4.4652 14.9976 4.77306C14.5606 5.32736 14.1248 5.80986 13.6509 6.15471L13.6509 6.15471C13.2355 6.45708 12.6951 6.72646 11.8886 7.02696L11.8886 7.02697C11.2575 7.2622 10.9368 7.96434 11.172 8.59529C11.4069 9.22653 12.1094 9.54705 12.7402 9.31215L12.7402 9.31213C13.7499 8.93577 14.4759 8.5702 15.0858 8.12645L15.0858 8.12644C16.118 7.37529 16.9375 6.26821 17.7042 5.23256C17.7958 5.10882 17.8867 4.98611 17.977 4.86514C18.4036 4.29412 18.8195 3.7611 19.2574 3.32877C19.695 2.89667 20.1471 2.5729 20.643 2.41197L20.6431 2.41196C21.1133 2.25915 21.6513 2.25922 22.249 2.35349C22.8468 2.44777 23.4922 2.63406 24.1745 2.84379C24.2948 2.88079 24.4163 2.91854 24.5389 2.95659C25.7956 3.34696 27.1596 3.77064 28.5002 3.77064C29.8396 3.77064 31.2036 3.3472 32.4605 2.95698C32.5832 2.9189 32.7048 2.88114 32.8253 2.84412C33.5077 2.63444 34.1533 2.44817 34.7514 2.35385C35.3493 2.25954 35.8874 2.25937 36.3576 2.41197C36.8536 2.573 37.3055 2.8967 37.7429 3.32864C38.1806 3.76081 38.5961 4.29361 39.0224 4.86448C39.1123 4.98491 39.2028 5.10707 39.2939 5.23025C40.0605 6.26614 40.8804 7.37396 41.9146 8.12645C42.9594 8.88677 44.279 9.33216 45.509 9.74729C45.6474 9.794 45.7846 9.84033 45.9202 9.88668C46.5956 10.1175 47.2306 10.3487 47.7756 10.6298C48.3204 10.9109 48.765 11.2369 49.0669 11.6517C49.3647 12.061 49.5356 12.5792 49.6337 13.1804C49.7319 13.7817 49.7557 14.4545 49.7674 15.1672C49.7697 15.3051 49.7714 15.4444 49.7732 15.585C49.79 16.8873 49.808 18.2911 50.2129 19.5383L50.3556 19.492L50.2129 19.5383C50.5998 20.7293 51.3874 21.8327 52.1287 22.8713C52.2239 23.0047 52.3184 23.137 52.4111 23.2683C52.8217 23.8496 53.1999 24.4116 53.4757 24.9665C53.7514 25.521 53.9202 26.0596 53.9202 26.5937C53.9202 27.6752 53.2395 28.749 52.4135 29.9158C52.3218 30.0454 52.2284 30.176 52.1342 30.3077C51.3925 31.3446 50.603 32.4481 50.2129 33.6493L50.3556 33.6956L50.2129 33.6493C49.8079 34.8966 49.79 36.3004 49.7733 37.6025C49.7715 37.7431 49.7698 37.8825 49.7675 38.0204C49.7559 38.733 49.7321 39.4057 49.6339 40.007C49.5357 40.6082 49.3648 41.1264 49.0669 41.5358C48.7649 41.9508 48.3205 42.2767 47.7762 42.5574C47.2316 42.8383 46.5971 43.0691 45.9221 43.2996C45.7873 43.3457 45.6508 43.3917 45.5132 43.4381C44.2831 43.853 42.9624 44.2985 41.9146 45.0611C40.8831 45.8116 40.0636 46.9186 39.2968 47.9542C39.2051 48.0781 39.1142 48.2009 39.0238 48.322C38.5971 48.8931 38.181 49.4262 37.7431 49.8586C37.3053 50.2908 36.8532 50.6146 36.3575 50.7755L36.3574 50.7755C35.887 50.9285 35.3491 50.9285 34.7514 50.8342C34.1537 50.74 33.5084 50.5537 32.8263 50.3439C32.7059 50.3069 32.5844 50.2692 32.4619 50.2311C31.2053 49.8407 29.8413 49.4168 28.5002 49.4168C27.1607 49.4168 25.7968 49.8403 24.54 50.2305C24.4173 50.2686 24.2957 50.3064 24.1752 50.3434C23.4928 50.5531 22.8472 50.7394 22.2492 50.8337C21.6513 50.928 21.1132 50.9282 20.643 50.7755L20.5967 50.9182L20.643 50.7755C20.1468 50.6144 19.6948 50.2908 19.2575 49.859C18.8199 49.4269 18.4044 48.8942 17.9783 48.3234C17.8884 48.203 17.798 48.0809 17.7069 47.9577C16.9404 46.9219 16.1206 45.814 15.0858 45.061C14.041 44.3007 12.7214 43.8553 11.4915 43.4402C11.3531 43.3935 11.2158 43.3472 11.0802 43.3008C10.4049 43.07 9.76983 42.8388 9.22485 42.5577C8.68006 42.2766 8.23545 41.9506 7.93355 41.5358C7.63571 41.1266 7.46485 40.6084 7.36669 40.0073C7.26851 39.406 7.24472 38.7334 7.23306 38.0207C7.2308 37.8828 7.22901 37.7435 7.22721 37.603C7.21052 36.3007 7.19252 34.8968 6.78752 33.6492L6.64485 33.6955L6.78751 33.6492C6.40069 32.4582 5.61312 31.3548 4.87182 30.3162C4.77661 30.1828 4.68216 30.0505 4.58942 29.9192C4.17887 29.3379 3.80069 28.7759 3.52486 28.221C3.24923 27.6665 3.08044 27.1279 3.08044 26.5937C3.08044 25.5128 3.76109 24.4387 4.58709 23.2717C4.67889 23.142 4.77237 23.0113 4.86663 22.8795C5.60826 21.8425 6.39755 20.7389 6.78751 19.5383L6.78752 19.5383C7.19275 18.2902 7.21065 16.8862 7.22725 15.584C7.22904 15.4436 7.23081 15.3044 7.23306 15.1667C7.24467 14.4541 7.2684 13.7815 7.36658 13.1803C7.46472 12.5793 7.6356 12.061 7.93355 11.6516L7.93357 11.6515C8.16088 11.3391 8.48517 11.0578 8.9326 10.793C9.51214 10.4505 9.70446 9.70265 9.36173 9.12304C9.01913 8.54325 8.27099 8.35147 7.69174 8.69385L7.69174 8.69386C6.96084 9.12594 6.39306 9.62378 5.96178 10.2168C5.02628 11.5023 4.85049 13.0837 4.80495 14.6114C4.79491 14.9483 4.79122 15.2786 4.7876 15.6034C4.78288 16.0259 4.77826 16.4391 4.75989 16.8453C4.72772 17.5565 4.65376 18.2134 4.46804 18.7853L4.61071 18.8316L4.46804 18.7853C4.29231 19.3266 3.97192 19.8809 3.58177 20.4636C3.38713 20.7544 3.17671 21.0499 2.95996 21.3532L2.91455 21.4167C2.71256 21.6993 2.50585 21.9884 2.30403 22.2839C1.43813 23.5516 0.641931 24.9632 0.641931 26.5937C0.641931 28.2242 1.4383 29.6363 2.30429 30.9043C2.50633 31.2001 2.71326 31.4896 2.91545 31.7724L2.96028 31.8351C3.17703 32.1384 3.38745 32.434 3.58208 32.7247C3.9722 33.3074 4.29249 33.8614 4.46803 34.4022L4.61071 34.3559L4.46804 34.4022C4.65383 34.9743 4.72782 35.6312 4.76001 36.3425C4.7784 36.7487 4.78301 37.1621 4.78772 37.5848C4.79135 37.9094 4.79503 38.2396 4.80506 38.5763C4.85056 40.1039 5.02628 41.6852 5.96182 42.9707L6.0831 42.8824L5.96182 42.9707C6.60674 43.8568 7.47901 44.4388 8.43263 44.8853C9.16706 45.2293 9.95927 45.4967 10.7372 45.7594C10.9131 45.8188 11.0883 45.8779 11.2619 45.9377L3.77628 62.6872L3.77626 62.6872C3.60006 63.0817 3.64554 63.5398 3.89611 63.8917C4.14641 64.2435 4.56337 64.4373 4.99523 64.3994L15.0894 63.5226L20.0549 72.5199C20.2695 72.9088 20.6785 73.15 21.1224 73.15H21.1278H21.1286C21.5748 73.1478 21.9842 72.902 22.1957 72.5091L24.9985 67.307C25.318 66.7142 25.0964 65.9746 24.5034 65.6552L24.4323 65.7872L24.5034 65.6552C23.9103 65.3358 23.171 65.5573 22.8517 66.1503L21.1094 69.3841L16.8412 61.6502L16.8412 61.6501C16.6084 61.2286 16.1486 60.9816 15.6677 61.0246L6.84772 61.7907L13.4917 46.9248C13.9687 47.2452 14.4012 47.6894 14.8248 48.2029C15.1378 48.5823 15.4405 48.9924 15.7517 49.414C15.9052 49.622 16.0609 49.8329 16.2208 50.0442C17.1801 51.3117 18.276 52.5714 19.8894 53.0951C21.385 53.5811 22.9307 53.2562 24.3948 52.8261C24.7052 52.7349 25.0091 52.6399 25.3087 52.5462C25.725 52.4161 26.1329 52.2886 26.5379 52.1776C27.229 51.9884 27.8852 51.8558 28.4996 51.8558C29.4722 51.8558 30.5546 52.1926 31.7084 52.5517C31.7497 52.5645 31.791 52.5774 31.8324 52.5902C33.0213 52.9598 34.2772 53.3382 35.508 53.338C37.7401 53.338 39.1584 52.0591 40.3245 50.6207C40.6161 50.261 40.8933 49.8897 41.1636 49.5249C41.1901 49.4891 41.2166 49.4533 41.2431 49.4176C41.4862 49.0892 41.7242 48.7678 41.965 48.4631C42.4577 47.8394 42.9535 47.2973 43.5076 46.9248L50.1516 61.7907L41.3321 61.0247C41.332 61.0247 41.332 61.0247 41.3319 61.0246C40.8486 60.9799 40.3906 61.2289 40.1581 61.6502L40.2894 61.7227L40.1581 61.6502L35.8899 69.3841L30.6368 59.634C30.2127 58.8468 29.3935 58.3578 28.4996 58.3578C27.6054 58.3578 26.7863 58.8469 26.3622 59.634L24.9022 62.3437C24.5827 62.9365 24.8043 63.676 25.3973 63.9955C25.9901 64.3148 26.7294 64.093 27.049 63.5005L27.049 63.5005L28.4996 60.8083L34.8037 72.5092L34.9358 72.438L34.8037 72.5092C35.0154 72.9019 35.4246 73.1479 35.8709 73.15H35.8717H35.8771C36.3209 73.15 36.73 72.9088 36.9446 72.5199L41.91 63.5226L52.0043 64.3994C52.0043 64.3994 52.0043 64.3994 52.0044 64.3994C52.4346 64.437 52.8529 64.2436 53.1034 63.8917C53.3539 63.5398 53.3994 63.0817 53.2232 62.6872L53.2232 62.6872L45.7375 45.9378C45.9113 45.8781 46.0866 45.8189 46.2626 45.7595C47.0398 45.4973 47.8317 45.2301 48.5661 44.8864C49.52 44.4398 50.393 43.8576 51.0385 42.9708L50.9172 42.8826L51.0385 42.9708C51.9741 41.6852 52.1499 40.1036 52.1954 38.5759C52.2054 38.239 52.2091 37.9086 52.2127 37.5838C52.2174 37.1613 52.222 36.7482 52.2404 36.3421C52.2725 35.6309 52.3465 34.9742 52.5321 34.4024L52.3895 34.3561L52.5321 34.4024C52.7074 33.8624 53.0275 33.3087 53.4176 32.7259C53.6123 32.4351 53.8227 32.1395 54.0395 31.836L54.0837 31.7742C54.2861 31.4909 54.4932 31.2009 54.6955 30.9046C55.5617 29.6359 56.3584 28.2229 56.3584 26.5939C56.3584 24.964 55.5618 23.5514 54.6957 22.283C54.4934 21.9867 54.2862 21.6968 54.0838 21.4136L54.0397 21.3519C53.8229 21.0486 53.6125 20.753 53.4179 20.4623C53.0278 19.8796 52.7075 19.3258 52.5321 18.7855C52.3462 18.2129 52.2722 17.5558 52.2401 16.8445C52.2217 16.4381 52.2172 16.0247 52.2125 15.6019C52.2089 15.2775 52.2053 14.9476 52.1953 14.6111C52.1501 13.084 51.9745 11.5033 51.0385 10.2169Z" fill="#F3F2F2" stroke="#F3F2F2" stroke-width="0.3"/>
</svg>
