<svg width="73" height="73" viewBox="0 0 73 73" fill="none" xmlns="http://www.w3.org/2000/svg">
<g clip-path="url(#clip0)">
<path d="M49.62 22.1207C48.8315 22.1207 48.1914 22.7579 48.1914 23.546C48.1914 24.3335 48.8315 24.9717 49.62 24.9717C50.4102 24.9717 51.0485 24.3335 51.0485 23.546C51.0485 22.7579 50.4102 22.1207 49.62 22.1207Z" fill="#F3F2F2"/>
<path d="M23.6635 48.026C22.8733 48.026 22.2349 48.6648 22.2349 49.4518C22.2349 50.2404 22.8733 50.8776 23.6635 50.8776C24.452 50.8776 25.0921 50.2404 25.0921 49.4518C25.0921 48.6648 24.452 48.026 23.6635 48.026Z" fill="#F3F2F2"/>
<path d="M71.4376 8.77136C70.9555 8.65941 70.4488 8.80478 70.1006 9.15565L64.1781 15.1133H61.3389L58.2133 11.8813V9.00806L64.0509 3.09496C64.3963 2.7452 64.537 2.24228 64.4226 1.76386C64.3087 1.286 63.9561 0.900595 63.4895 0.743536C62.023 0.250082 60.4884 1.31961e-05 58.9276 1.31961e-05C54.2747 1.31961e-05 50.0476 2.16542 47.3299 5.94096C44.7864 9.47534 44.0024 13.8067 45.1257 17.9521L34.6028 28.4544L17.0716 10.9173V7.47535C17.0716 6.97465 16.8082 6.51016 16.3779 6.25285L6.27691 0.203299C5.71441 -0.133654 4.9951 -0.0450994 4.53194 0.417723L0.491756 4.44946C0.0285862 4.91228 -0.0601414 5.63018 0.276912 6.19158L6.33718 16.2729C6.59499 16.7023 7.05984 16.9646 7.56151 16.9652L11.0091 16.9663L28.542 34.5034L18.0593 44.9656C13.9058 43.845 9.56374 44.6287 6.02077 47.1689C2.24008 49.8796 0.072113 54.0973 0.072113 58.7411C0.072113 60.2984 0.322671 61.8305 0.817091 63.2936C0.975015 63.762 1.36508 64.1157 1.84722 64.2271C2.32993 64.339 2.83606 64.1936 3.18484 63.8428L9.10671 57.8857H11.9616L15.2144 61.1321V63.9814L9.24566 69.8917C8.8941 70.2398 8.74845 70.745 8.86062 71.2268C8.97223 71.708 9.32658 72.0973 9.79589 72.2549C11.2618 72.7483 12.797 72.9984 14.3573 72.9984C19.0102 72.9984 23.2356 70.8341 25.9521 67.0608C28.4973 63.5247 29.2825 59.1917 28.1597 55.0463L36.5788 46.6437L38.5074 48.7345L37.6223 49.6172C37.0643 50.1742 37.0643 51.077 37.6223 51.6339C38.1804 52.1903 39.0844 52.1903 39.643 51.6339L40.4443 50.8342L58.5392 70.4509C58.5526 70.4654 58.5665 70.4793 58.5805 70.4932C61.9287 73.8349 67.3534 73.836 70.7033 70.4927C74.0437 67.1571 74.0437 61.7297 70.7033 58.3942C70.6888 58.3797 70.6737 58.3657 70.6586 58.3518L50.9728 40.3268L51.7652 39.536C52.3232 38.9796 52.3232 38.0768 51.7652 37.5198C51.2072 36.9629 50.3031 36.9629 49.7446 37.5198L48.8656 38.3976L46.7669 36.475L55.2267 28.0317C56.4293 28.3525 57.6703 28.5151 58.9276 28.5151C66.8048 28.5151 73.2127 22.1191 73.2127 14.2578C73.2127 12.7001 72.9622 11.1685 72.4678 9.7048C72.3098 9.23641 71.9198 8.88275 71.4376 8.77136ZM12.6129 14.5335C12.345 14.2656 11.9817 14.1292 11.6022 14.1292L8.37122 14.1281L3.30091 5.67919L5.76352 3.22139L14.2144 8.28292V11.5076C14.2144 11.8852 14.3645 12.2473 14.6318 12.5146L32.5827 30.4711L30.5621 32.4872L12.6129 14.5335ZM48.9505 42.3452L68.7033 60.4309C70.9097 62.6565 70.903 66.2599 68.6826 68.4771C66.4572 70.6982 62.8545 70.7049 60.6201 68.4966L42.4661 48.8158L48.9505 42.3452ZM46.8433 40.4154L40.5292 46.7161L38.6006 44.6253L44.7446 38.4928L46.8433 40.4154ZM58.9276 25.6635C57.6782 25.6635 56.4494 25.4636 55.2764 25.0693C54.7624 24.8972 54.1943 25.0297 53.8104 25.4124C46.6486 32.5602 31.2166 47.9614 25.5342 53.6334C25.1502 54.0166 25.0169 54.5835 25.1904 55.097C26.3779 58.6164 25.8098 62.3702 23.6313 65.3972C21.4588 68.4153 18.0783 70.1468 14.3573 70.1468C13.9393 70.1468 13.5236 70.124 13.1117 70.08L17.6491 65.5866C17.9192 65.3192 18.0716 64.955 18.0716 64.5746V60.5412C18.0716 60.163 17.9209 59.8004 17.653 59.5331L13.5632 55.4512C13.2953 55.1839 12.932 55.0335 12.5531 55.0335H8.51185C8.13071 55.0335 7.76575 55.1856 7.49734 55.4551L2.99566 59.9837C2.95102 59.5727 2.9287 59.1577 2.9287 58.7406C2.9287 55.0263 4.66307 51.6529 7.68763 49.4847C10.72 47.3104 14.4817 46.7428 18.0085 47.9286C18.5225 48.1018 19.0905 47.9687 19.4745 47.5855C19.5531 47.5075 47.7306 19.3845 47.7507 19.3645C48.1346 18.9813 48.2674 18.4149 48.0944 17.9014C46.9064 14.382 47.4733 10.6293 49.6502 7.60456C51.8244 4.58368 55.2055 2.85158 58.927 2.85158C59.3578 2.85158 59.7859 2.87553 60.21 2.92231L55.7669 7.42299C55.5035 7.68977 55.3562 8.049 55.3562 8.42327V12.4567C55.3562 12.8265 55.4996 13.1813 55.7568 13.4469L59.7038 17.5288C59.9728 17.8073 60.3439 17.9643 60.7317 17.9643H64.773C65.1536 17.9643 65.5186 17.8128 65.787 17.5427L70.2886 13.0147C70.3333 13.4258 70.3556 13.8407 70.3556 14.2578C70.3556 20.5469 65.2289 25.6635 58.9276 25.6635Z" fill="#F3F2F2"/>
<path d="M44.5697 26.5702L26.6931 44.4119C26.1356 44.9683 26.1356 45.8711 26.6931 46.4281C27.2511 46.985 28.1557 46.985 28.7137 46.4281L46.5904 28.5863C47.1484 28.0299 47.1484 27.1271 46.5904 26.5702C46.0324 26.0132 45.1278 26.0132 44.5697 26.5702Z" fill="#F3F2F2"/>
<path d="M62.6222 64.4453C63.1802 65.0006 64.0848 65.0006 64.6428 64.442C65.1998 63.8845 65.1981 62.9817 64.6395 62.4259L51.7628 49.6155C51.2042 49.0597 50.2991 49.0614 49.7427 49.6189C49.1853 50.1769 49.1869 51.0792 49.7455 51.635L62.6222 64.4453Z" fill="#F3F2F2"/>
</g>
<defs>
<clipPath id="clip0">
<rect width="73" height="73" fill="white"/>
</clipPath>
</defs>
</svg>
