<svg width="53" height="73" viewBox="0 0 53 73" fill="none" xmlns="http://www.w3.org/2000/svg">
<path d="M47.9428 5.04536H38.84C38.3452 3.58063 36.959 2.52268 35.3294 2.52268H31.4798C30.3114 0.951523 28.4606 0 26.5 0C24.5394 0 22.6885 0.951523 21.5202 2.52268H17.6706C16.041 2.52268 14.6547 3.58063 14.16 5.04536H5.05722C2.3187 5.04536 0.0906982 7.27335 0.0906982 10.0119V68.0335C0.0906982 70.772 2.3187 73 5.05722 73H47.9428C50.6813 73 52.9093 70.772 52.9093 68.0335V10.0119C52.9093 7.27335 50.6813 5.04536 47.9428 5.04536ZM14.16 12.4557C14.6547 13.9205 16.041 14.9784 17.6706 14.9784H35.3294C36.959 14.9784 38.3452 13.9205 38.84 12.4557H45.4989V65.5896H7.50107V12.4557H14.16ZM17.6706 4.88769H22.1544C22.5753 4.88769 22.9646 4.6638 23.1764 4.2999C23.8816 3.08839 25.124 2.36501 26.5 2.36501C27.876 2.36501 29.1184 3.08839 29.8235 4.2999C30.0354 4.6638 30.4246 4.88769 30.8455 4.88769H35.3294C36.0683 4.88769 36.6695 5.48887 36.6695 6.22786V11.2702C36.6695 11.2713 36.6694 11.2723 36.6694 11.2732C36.6694 11.2737 36.6694 11.2742 36.6694 11.2748C36.6686 12.013 36.0677 12.6134 35.3292 12.6134H17.6705C16.9326 12.6134 16.3322 12.0138 16.3304 11.2762C16.3304 11.2751 16.3306 11.2742 16.3306 11.2732C16.3306 11.2712 16.3303 11.2691 16.3303 11.2671V6.22786C16.3304 5.48887 16.9316 4.88769 17.6706 4.88769ZM50.5443 68.0335C50.5443 69.4679 49.3772 70.635 47.9428 70.635H5.05722C3.62276 70.635 2.45571 69.4679 2.45571 68.0335V10.0119C2.45571 8.57742 3.62276 7.41037 5.05722 7.41037H13.9654V10.0907H6.31856C5.66534 10.0907 5.13605 10.62 5.13605 11.2732V66.7721C5.13605 67.4254 5.66534 67.9546 6.31856 67.9546H46.6814C47.3346 67.9546 47.8639 67.4254 47.8639 66.7721V11.2732C47.8639 10.62 47.3346 10.0907 46.6814 10.0907H39.0345V7.41037H47.9428C49.3772 7.41037 50.5443 8.57742 50.5443 10.0119V68.0335Z" fill="#F3F2F2"/>
<path d="M26.5 9.9331C27.1532 9.9331 27.6825 9.40381 27.6825 8.75059V6.22792C27.6825 5.5747 27.1532 5.04541 26.5 5.04541C25.8468 5.04541 25.3175 5.5747 25.3175 6.22792V8.75059C25.3175 9.40381 25.8468 9.9331 26.5 9.9331Z" fill="#F3F2F2"/>
<path d="M27.7613 26.3305H35.3294C35.9826 26.3305 36.5119 25.8012 36.5119 25.148C36.5119 24.4947 35.9826 23.9655 35.3294 23.9655H27.7613C27.1081 23.9655 26.5788 24.4947 26.5788 25.148C26.5788 25.8012 27.1081 26.3305 27.7613 26.3305Z" fill="#F3F2F2"/>
<path d="M27.7613 31.3759H40.3747C41.0279 31.3759 41.5572 30.8466 41.5572 30.1934C41.5572 29.5402 41.0279 29.0109 40.3747 29.0109H27.7613C27.1081 29.0109 26.5788 29.5402 26.5788 30.1934C26.5788 30.8466 27.1081 31.3759 27.7613 31.3759Z" fill="#F3F2F2"/>
<path d="M15.573 31.0295C15.804 31.2604 16.1067 31.3758 16.4093 31.3758C16.7119 31.3758 17.0146 31.2604 17.2456 31.0295L23.5523 24.7228C24.0141 24.2609 24.0141 23.5123 23.5523 23.0505C23.0903 22.5888 22.3417 22.5888 21.8799 23.0505L16.4093 28.521L13.4615 25.5731C12.9996 25.1115 12.251 25.1115 11.7892 25.5731C11.3274 26.0351 11.3274 26.7837 11.7892 27.2455L15.573 31.0295Z" fill="#F3F2F2"/>
<path d="M27.7613 38.9439H35.3294C35.9826 38.9439 36.5119 38.4146 36.5119 37.7614C36.5119 37.1081 35.9826 36.5789 35.3294 36.5789H27.7613C27.1081 36.5789 26.5788 37.1081 26.5788 37.7614C26.5788 38.4146 27.1081 38.9439 27.7613 38.9439Z" fill="#F3F2F2"/>
<path d="M27.7613 43.9892H40.3747C41.0279 43.9892 41.5572 43.4599 41.5572 42.8067C41.5572 42.1534 41.0279 41.6241 40.3747 41.6241H27.7613C27.1081 41.6241 26.5788 42.1534 26.5788 42.8067C26.5788 43.4599 27.1081 43.9892 27.7613 43.9892Z" fill="#F3F2F2"/>
<path d="M15.573 43.6429C15.804 43.8738 16.1067 43.9892 16.4093 43.9892C16.7119 43.9892 17.0146 43.8738 17.2456 43.6429L23.5523 37.3362C24.0141 36.8743 24.0141 36.1257 23.5523 35.6639C23.0903 35.2022 22.3417 35.2022 21.8799 35.6639L16.4093 41.1344L13.4615 38.1865C12.9996 37.7249 12.251 37.7249 11.7892 38.1865C11.3274 38.6485 11.3274 39.3971 11.7892 39.8589L15.573 43.6429Z" fill="#F3F2F2"/>
<path d="M27.7613 51.5573H35.3294C35.9826 51.5573 36.5119 51.028 36.5119 50.3748C36.5119 49.7215 35.9826 49.1923 35.3294 49.1923H27.7613C27.1081 49.1923 26.5788 49.7215 26.5788 50.3748C26.5788 51.028 27.1081 51.5573 27.7613 51.5573Z" fill="#F3F2F2"/>
<path d="M27.7613 56.6026H40.3747C41.0279 56.6026 41.5572 56.0733 41.5572 55.4201C41.5572 54.7668 41.0279 54.2375 40.3747 54.2375H27.7613C27.1081 54.2375 26.5788 54.7668 26.5788 55.4201C26.5788 56.0733 27.1081 56.6026 27.7613 56.6026Z" fill="#F3F2F2"/>
<path d="M15.573 56.2564C15.804 56.4872 16.1067 56.6026 16.4093 56.6026C16.7119 56.6026 17.0146 56.4872 17.2456 56.2564L23.5523 49.9496C24.0141 49.4877 24.0141 48.7391 23.5523 48.2773C23.0903 47.8156 22.3417 47.8156 21.8799 48.2773L16.4093 53.7479L13.4615 50.8C12.9996 50.3383 12.251 50.3383 11.7892 50.8C11.3274 51.2619 11.3274 52.0105 11.7892 52.4723L15.573 56.2564Z" fill="#F3F2F2"/>
</svg>
